<?xml version="1.0" standalone="no"?>
<!DOCTYPE svg PUBLIC "-//W3C//DTD SVG 20010904//EN"
 "http://www.w3.org/TR/2001/REC-SVG-20010904/DTD/svg10.dtd">
<svg version="1.0" xmlns="http://www.w3.org/2000/svg"
 width="541.000000pt" height="93.000000pt" viewBox="0 0 541.000000 93.000000"
 preserveAspectRatio="xMidYMid meet">

<g transform="translate(0.000000,93.000000) scale(0.100000,-0.100000)"
fill="#000000" stroke="none">
<path d="M556 904 c-69 -15 -241 -76 -307 -109 -19 -9 -55 -31 -81 -48 -58
-38 -61 -61 -17 -112 22 -25 28 -39 22 -48 -6 -6 -18 -33 -28 -59 -10 -27 -21
-48 -25 -48 -3 0 -17 12 -31 26 -33 35 -33 109 0 150 20 25 21 29 6 32 -35 8
-75 -59 -75 -126 0 -40 30 -90 66 -111 19 -11 39 -32 46 -46 6 -14 16 -25 22
-25 6 0 79 -57 161 -126 83 -69 161 -130 175 -137 14 -6 49 -31 78 -54 49 -39
57 -42 94 -37 22 4 74 22 116 40 64 28 78 38 80 59 5 37 -18 32 -106 -20 -76
-46 -109 -54 -130 -33 -17 17 -15 61 5 103 16 33 37 46 248 150 126 63 241
117 255 120 25 6 25 5 22 -41 -4 -49 12 -94 35 -94 16 0 16 0 -3 39 -14 29
-15 37 -2 69 15 38 10 58 -22 97 -17 21 -399 312 -448 342 -20 12 -40 31 -44
42 -9 24 -19 25 -112 5z m107 -50 c44 -23 130 -90 267 -208 63 -56 134 -115
155 -133 22 -17 38 -33 35 -35 -3 -2 -58 -21 -123 -42 -80 -26 -156 -60 -238
-107 -66 -38 -124 -69 -129 -69 -15 0 -277 219 -378 317 l-97 92 25 21 c50 39
207 112 315 145 131 40 128 39 168 19z m-404 -318 c10 -12 9 -29 -5 -85 -9
-39 -20 -71 -23 -71 -4 0 -19 13 -34 28 -32 33 -34 62 -7 120 17 37 22 42 38
33 10 -5 24 -17 31 -25z m202 -177 c100 -87 139 -126 135 -138 -3 -9 -13 -39
-24 -67 l-18 -52 -140 117 c-118 99 -139 121 -142 148 -3 28 30 113 44 113 3
0 68 -55 145 -121z"/>
<path d="M485 757 c-127 -49 -205 -91 -205 -112 0 -8 10 -19 23 -26 12 -6 41
-29 64 -52 l42 -40 73 35 c40 20 117 50 171 68 53 17 97 36 97 42 0 6 -8 16
-17 23 -17 13 -33 7 -246 -95 -61 -28 -72 -31 -93 -20 -35 19 -67 57 -59 70
14 22 244 110 289 110 12 0 33 -11 46 -25 13 -14 27 -25 32 -25 16 0 7 26 -22
58 -39 42 -59 41 -195 -11z"/>
<path d="M3320 555 l0 -345 75 0 75 0 0 76 c0 77 11 115 33 113 7 0 47 -43 90
-95 l78 -94 86 0 c81 0 85 1 71 18 -8 9 -63 75 -122 146 l-107 128 97 104 96
104 -90 0 -90 0 -71 -77 -71 -78 0 173 0 172 -75 0 -75 0 0 -345z"/>
<path d="M3917 893 c-4 -3 -7 -159 -7 -345 l0 -338 75 0 75 0 0 345 0 345 -68
0 c-38 0 -72 -3 -75 -7z"/>
<path d="M4167 894 c-4 -4 -7 -34 -7 -66 l0 -58 80 0 81 0 -3 63 -3 62 -70 3
c-39 1 -74 0 -78 -4z"/>
<path d="M4541 882 c-47 -24 -74 -64 -81 -120 -5 -44 -7 -47 -37 -50 l-33 -3
0 -60 0 -59 35 0 35 0 0 -190 0 -190 75 0 75 0 0 190 0 190 50 0 50 0 0 60 0
60 -50 0 c-46 0 -50 2 -50 24 0 35 24 50 68 42 37 -5 39 -5 60 39 12 25 22 49
22 54 0 32 -164 42 -219 13z"/>
<path d="M1517 883 c-4 -3 -7 -157 -7 -341 l0 -334 188 4 c177 3 190 5 236 28
59 30 84 62 97 119 18 82 -13 162 -79 202 -20 12 -39 24 -41 25 -2 2 10 15 27
29 89 75 42 224 -82 260 -51 15 -326 22 -339 8z m297 -149 c9 -8 16 -28 16
-44 0 -41 -32 -60 -102 -60 l-58 0 0 60 0 60 64 0 c45 0 69 -5 80 -16z m8
-234 c60 -17 78 -82 36 -127 -19 -20 -31 -23 -105 -23 l-83 0 0 80 0 80 58 0
c31 0 74 -5 94 -10z"/>
<path d="M2294 709 c-61 -18 -127 -71 -156 -128 -23 -43 -28 -66 -28 -120 1
-84 23 -134 85 -189 104 -91 252 -91 360 0 76 65 102 206 55 303 -53 109 -195
169 -316 134z m126 -132 c33 -17 70 -74 70 -109 0 -42 -25 -94 -54 -113 -33
-22 -97 -21 -130 0 -14 9 -32 36 -42 60 -14 38 -15 49 -3 87 23 71 97 106 159
75z"/>
<path d="M2894 709 c-61 -18 -127 -71 -156 -128 -35 -66 -38 -162 -9 -226 36
-81 152 -155 241 -155 45 0 125 28 167 59 117 85 128 278 23 381 -72 70 -173
96 -266 69z m126 -132 c33 -17 70 -74 70 -109 0 -42 -25 -94 -54 -113 -29 -19
-94 -22 -125 -5 -12 6 -30 29 -42 51 -55 108 48 228 151 176z"/>
<path d="M4805 701 c3 -11 51 -119 105 -241 55 -122 100 -226 100 -232 0 -5
-18 -48 -40 -95 -22 -47 -40 -90 -40 -94 0 -5 33 -9 73 -9 l73 0 148 333 c82
182 151 338 153 345 4 9 -14 12 -70 12 l-75 0 -42 -97 c-24 -54 -56 -127 -72
-163 l-29 -65 -71 163 -72 162 -73 0 c-69 0 -74 -1 -68 -19z"/>
<path d="M4160 460 l0 -250 80 0 80 0 0 250 0 250 -80 0 -80 0 0 -250z"/>
<path d="M1040 343 c-36 -13 -77 -29 -92 -35 -44 -16 -36 -40 11 -32 37 6 40
4 65 -32 14 -21 26 -47 26 -58 0 -17 -1 -18 -17 -3 -34 29 -69 26 -77 -8 -8
-31 -22 -32 -30 -2 -7 27 -75 121 -83 114 -2 -3 8 -24 23 -46 14 -22 31 -62
35 -88 5 -26 13 -51 18 -56 16 -16 41 1 57 38 8 19 17 35 20 35 3 0 19 -11 36
-25 30 -25 53 -32 61 -17 9 13 -21 84 -52 122 -17 22 -31 41 -31 44 0 3 27 15
60 27 33 12 60 25 60 29 0 18 -30 16 -90 -7z"/>
<path d="M1136 271 c-49 -17 -73 -41 -41 -41 32 0 135 35 132 45 -6 16 -39 15
-91 -4z"/>
<path d="M743 214 c-66 -37 -78 -48 -68 -64 8 -13 165 67 165 85 0 24 -30 17
-97 -21z"/>
</g>
</svg>
